<svg width="650" height="650" viewBox="0 0 650 650" fill="none" xmlns="http://www.w3.org/2000/svg">
<g clip-path="url(#clip0_7_32)">
<mask id="mask0_7_32" style="mask-type:luminance" maskUnits="userSpaceOnUse" x="219" y="49" width="239" height="391">
<path d="M355.46 391.349C315.15 400.206 279.447 416.094 248.347 439.012C186.955 319.787 224.026 189.783 359.56 49C350.517 104.672 376.141 167.88 436.434 238.625C481.804 303.754 454.813 354.662 355.46 391.349Z" fill="white"/>
</mask>
<g mask="url(#mask0_7_32)">
<path d="M481.804 48.9998H186.955V439.011H481.804V48.9998Z" fill="url(#paint0_linear_7_32)"/>
</g>
<mask id="mask1_7_32" style="mask-type:luminance" maskUnits="userSpaceOnUse" x="248" y="400" width="230" height="163">
<path d="M475.896 496.412C450.748 593.904 332.873 590.147 248.347 439.012C396.317 364.357 493.693 405.016 475.896 496.412Z" fill="white"/>
</mask>
<g mask="url(#mask1_7_32)">
<path d="M493.692 364.357H248.347V593.904H493.692V364.357Z" fill="url(#paint1_linear_7_32)"/>
</g>
<mask id="mask2_7_32" style="mask-type:luminance" maskUnits="userSpaceOnUse" x="248" y="430" width="216" height="171">
<path d="M452.847 554.238C402.947 641.686 290.208 607.062 248.402 439.019C410.796 405.904 494.052 470.738 452.847 554.238Z" fill="white"/>
</mask>
<g mask="url(#mask2_7_32)">
<path opacity="0.38" d="M494.052 405.904H248.402V641.686H494.052V405.904Z" fill="url(#paint2_linear_7_32)"/>
</g>
<path fill-rule="evenodd" clip-rule="evenodd" d="M355.46 391.349C454.813 354.661 481.804 303.755 436.433 238.625C376.141 167.88 350.516 104.672 359.559 49C333.686 75.875 311.401 102.357 292.705 128.447C301.074 170.393 326.246 215.992 368.221 265.244C405.517 318.783 393.916 362.71 333.417 397.029C340.605 394.892 347.952 392.998 355.46 391.349Z" fill="#39D4FF"/>
<path fill-rule="evenodd" clip-rule="evenodd" d="M475.896 496.411C493.494 406.034 398.473 365.27 253.276 436.558C358.84 406.877 422.345 447.736 407.684 523.031C403.685 538.532 397.343 551.473 389.163 561.67C430.187 566.818 463.789 543.349 475.896 496.411Z" fill="#FCE2A6"/>
<mask id="mask3_7_32" style="mask-type:luminance" maskUnits="userSpaceOnUse" x="242" y="93" width="250" height="347">
<path d="M364.337 422.15C323.13 419.829 284.468 425.519 248.347 439.22C221.315 307.87 292.013 192.643 460.44 93.5406C436.745 144.724 444.409 212.496 483.433 296.86C509.596 371.798 469.898 413.561 364.337 422.15Z" fill="white"/>
</mask>
<g mask="url(#mask3_7_32)">
<path opacity="0.28" d="M509.596 93.5406H221.314V439.22H509.596V93.5406Z" fill="url(#paint3_linear_7_32)"/>
</g>
<path d="M220.984 393.082C205.792 363.065 198.115 330.345 197.964 297.594C197.809 263.772 205.68 229.91 221.59 198.951L218.245 197.227C202.056 228.727 194.048 263.186 194.206 297.609C194.355 330.064 201.764 362.483 216.418 392.357C211.835 392.299 207.335 394.208 204.177 397.787C203.647 398.387 203.169 399.019 202.742 399.676C185.375 378.57 173.277 354.086 166.934 328.196C160.304 301.139 159.956 272.539 166.44 244.646L162.77 243.806C156.154 272.268 156.511 301.458 163.279 329.081C169.893 356.076 182.629 381.569 200.957 403.416C199.593 407.594 199.969 412.253 202.21 416.252C205.544 422.2 212.271 425.393 218.987 424.214C223.646 453.221 240.142 471.289 268.476 478.416C289.232 498.175 309.459 520.269 329.159 544.698C332.464 544.883 335.514 542.926 336.72 539.843C337.927 536.762 337.015 533.253 334.462 531.147C308.89 508.751 288.563 487.738 273.484 468.107C259.796 437.385 246.049 417.747 232.242 409.191C232.575 402.381 228.569 396.104 222.253 393.537C221.834 393.366 221.411 393.215 220.984 393.082Z" fill="#5E2C0B"/>
</g>
<defs>
<linearGradient id="paint0_linear_7_32" x1="471.469" y1="16.9127" x2="259.587" y2="367.903" gradientUnits="userSpaceOnUse">
<stop stop-color="#1EF8FC"/>
<stop offset="1" stop-color="#E14FD0"/>
</linearGradient>
<linearGradient id="paint1_linear_7_32" x1="427.43" y1="566.311" x2="294.059" y2="360.19" gradientUnits="userSpaceOnUse">
<stop stop-color="#EAD40C"/>
<stop offset="1" stop-color="#FF00E9"/>
</linearGradient>
<linearGradient id="paint2_linear_7_32" x1="397.353" y1="605.861" x2="322.877" y2="371.923" gradientUnits="userSpaceOnUse">
<stop stop-color="#EAD40C"/>
<stop offset="1" stop-color="#FF00E9"/>
</linearGradient>
<linearGradient id="paint3_linear_7_32" x1="564.199" y1="79.3185" x2="265.657" y2="360.313" gradientUnits="userSpaceOnUse">
<stop stop-color="#1EF8FC"/>
<stop offset="1" stop-color="#E14FD0"/>
</linearGradient>
<clipPath id="clip0_7_32">
<rect width="650" height="650" fill="white"/>
</clipPath>
</defs>
</svg>
