<svg width="800" height="800" viewBox="0 0 800 800" fill="none" xmlns="http://www.w3.org/2000/svg">
<path d="M726.273 668.037C739.377 668.037 750 657.412 750 644.307V154.729C750 141.625 739.375 131 726.273 131H155.299C142.195 131 131.572 141.625 131.572 154.729V212.598H73.7269C60.6249 212.596 50 223.221 50 236.328V644.307C50 657.414 60.6249 668.037 73.7269 668.037H726.273ZM97.4586 260.055H131.572V620.578H97.4586V260.055ZM702.541 620.578H179.029V178.456H702.541V620.578Z" fill="black"/>
<path d="M440.784 504.845H644.703C657.807 504.845 668.43 494.22 668.43 481.118V277.128C668.43 264.024 657.805 253.399 644.703 253.399H440.784C427.679 253.399 417.057 264.026 417.057 277.128V481.116C417.055 494.22 427.679 504.845 440.784 504.845ZM464.513 300.858H620.971V457.386H464.513V300.858Z" fill="black"/>
<path d="M236.865 586.438H644.701C657.805 586.438 668.428 575.813 668.428 562.709C668.428 549.604 657.803 538.982 644.701 538.982H236.865C223.758 538.982 213.135 549.607 213.135 562.709C213.135 575.813 223.76 586.438 236.865 586.438Z" fill="black"/>
<path d="M236.865 300.857H359.218C372.323 300.857 382.945 290.232 382.945 277.13C382.945 264.026 372.32 253.401 359.218 253.401H236.865C223.758 253.401 213.135 264.028 213.135 277.13C213.135 290.232 223.76 300.857 236.865 300.857Z" fill="black"/>
<path d="M236.865 382.453H359.218C372.323 382.453 382.945 371.828 382.945 358.726C382.945 345.62 372.32 334.997 359.218 334.997H236.865C223.758 334.997 213.135 345.622 213.135 358.726C213.135 371.828 223.76 382.453 236.865 382.453Z" fill="black"/>
<path d="M236.865 464.04H359.218C372.323 464.04 382.945 453.415 382.945 440.31C382.945 427.206 372.32 416.583 359.218 416.583H236.865C223.758 416.583 213.135 427.208 213.135 440.31C213.135 453.415 223.76 464.04 236.865 464.04Z" fill="black"/>
</svg>
