<svg width="800" height="800" viewBox="0 0 800 800" fill="none" xmlns="http://www.w3.org/2000/svg">
<path d="M399.768 197.013C288.469 201.52 201.708 297.542 205.781 411.708C205.781 459.162 155.546 505.464 154.037 552.846C154.037 553.52 154.037 554.189 154.037 554.863C152.95 585.312 176.096 610.918 205.781 612.11H317.87M399.768 197.013C511.069 201.52 597.829 297.542 593.757 411.708C593.757 459.126 643.991 505.32 645.463 552.846C645.463 553.52 645.463 554.189 645.463 554.863C646.551 585.312 623.407 610.918 593.721 612.11H481.667M399.768 197.013V141.5H361.847H437.692M481.667 612.11C481.772 635.441 473.195 657.937 457.692 675.01C442.782 691.615 421.777 701.063 399.768 701.063C377.758 701.063 356.757 691.615 341.847 675.01C326.34 657.937 317.766 635.441 317.87 612.11M481.667 612.11H317.87" stroke="black" stroke-width="60" stroke-linecap="round" stroke-linejoin="round"/>
</svg>
