<svg width="800" height="800" viewBox="0 0 800 800" fill="none" xmlns="http://www.w3.org/2000/svg">
<path d="M166.667 637.05C166.667 556.613 223.244 488.1 300.135 475.423L307.061 474.28C368.63 464.13 431.37 464.13 492.94 474.28L499.867 475.423C576.757 488.1 633.333 556.613 633.333 637.05C633.333 671.817 606.05 700 572.397 700H227.604C193.949 700 166.667 671.817 166.667 637.05Z" stroke="black" stroke-width="60"/>
<path d="M536.113 231.25C536.113 303.737 475.173 362.5 400 362.5C324.829 362.5 263.89 303.737 263.89 231.25C263.89 158.763 324.829 100 400 100C475.173 100 536.113 158.763 536.113 231.25Z" stroke="black" stroke-width="60"/>
</svg>
